<svg width="100" height="100" viewBox="0 0 100 100" fill="none" xmlns="http://www.w3.org/2000/svg">
<path d="M48.5312 9.74375C48.9834 9.503 49.4878 9.37708 50 9.37708C50.5122 9.37708 51.0166 9.503 51.4687 9.74375L98.3437 34.7437C98.8429 35.0105 99.2603 35.4078 99.5514 35.8932C99.8424 36.3786 99.9961 36.934 99.9961 37.5C99.9961 38.066 99.8424 38.6214 99.5514 39.1068C99.2603 39.5922 98.8429 39.9895 98.3437 40.2562L51.4687 65.2562C51.0166 65.497 50.5122 65.6229 50 65.6229C49.4878 65.6229 48.9834 65.497 48.5312 65.2562L1.65625 40.2562C1.15705 39.9895 0.739654 39.5922 0.448637 39.1068C0.157619 38.6214 0.00390439 38.066 0.00390439 37.5C0.00390439 36.934 0.157619 36.3786 0.448637 35.8932C0.739654 35.4078 1.15705 35.0105 1.65625 34.7437L48.5312 9.74375V9.74375Z" fill="white"/>
<path d="M13.2812 53.5438L1.65625 59.7437C1.15705 60.0105 0.739654 60.4078 0.448637 60.8932C0.157619 61.3786 0.00390439 61.934 0.00390439 62.5C0.00390439 63.066 0.157619 63.6213 0.448637 64.1068C0.739654 64.5922 1.15705 64.9895 1.65625 65.2562L48.5312 90.2562C48.9834 90.497 49.4878 90.6229 50 90.6229C50.5122 90.6229 51.0166 90.497 51.4687 90.2562L98.3437 65.2562C98.8429 64.9895 99.2603 64.5922 99.5514 64.1068C99.8424 63.6213 99.9961 63.066 99.9961 62.5C99.9961 61.934 99.8424 61.3786 99.5514 60.8932C99.2603 60.4078 98.8429 60.0105 98.3437 59.7437L86.7187 53.5438L54.4062 70.7687C53.0498 71.491 51.5367 71.8688 50 71.8688C48.4633 71.8688 46.9501 71.491 45.5937 70.7687L13.2812 53.5438Z" fill="white"/>
</svg>
